<svg width="34" height="14" viewBox="0 0 34 14" fill="none" xmlns="http://www.w3.org/2000/svg">
<rect width="34" height="14" rx="4" fill="#A048F2" fill-opacity="0.1"/>
<path d="M5.05682 11.5V2.77273H8.10795C8.71591 2.77273 9.21733 2.87784 9.61222 3.08807C10.0071 3.29545 10.3011 3.57528 10.4943 3.92756C10.6875 4.27699 10.7841 4.66477 10.7841 5.09091C10.7841 5.46591 10.7173 5.77557 10.5838 6.01989C10.4531 6.2642 10.2798 6.45739 10.0639 6.59943C9.85085 6.74148 9.61932 6.84659 9.36932 6.91477V7C9.63636 7.01705 9.90483 7.1108 10.1747 7.28125C10.4446 7.4517 10.6705 7.69602 10.8523 8.0142C11.0341 8.33239 11.125 8.72159 11.125 9.18182C11.125 9.61932 11.0256 10.0128 10.8267 10.3622C10.6278 10.7116 10.3139 10.9886 9.88494 11.1932C9.45597 11.3977 8.89773 11.5 8.21023 11.5H5.05682ZM6.11364 10.5625H8.21023C8.90057 10.5625 9.39063 10.429 9.6804 10.1619C9.97301 9.89205 10.1193 9.56534 10.1193 9.18182C10.1193 8.88636 10.044 8.61364 9.89347 8.36364C9.7429 8.1108 9.52841 7.90909 9.25 7.75852C8.97159 7.60511 8.64205 7.52841 8.26136 7.52841H6.11364V10.5625ZM6.11364 6.60795H8.07386C8.39205 6.60795 8.67898 6.54545 8.93466 6.42045C9.19318 6.29545 9.39773 6.11932 9.5483 5.89205C9.7017 5.66477 9.77841 5.39773 9.77841 5.09091C9.77841 4.70739 9.64489 4.3821 9.37784 4.11506C9.1108 3.84517 8.6875 3.71023 8.10795 3.71023H6.11364V6.60795ZM15.4695 11.6364C14.8388 11.6364 14.2947 11.4972 13.8374 11.2188C13.3828 10.9375 13.032 10.5455 12.7848 10.0426C12.5405 9.53693 12.4183 8.94886 12.4183 8.27841C12.4183 7.60795 12.5405 7.01705 12.7848 6.50568C13.032 5.99148 13.3757 5.59091 13.8161 5.30398C14.2592 5.0142 14.7763 4.86932 15.3672 4.86932C15.7081 4.86932 16.0447 4.92614 16.3771 5.03977C16.7095 5.15341 17.0121 5.33807 17.2848 5.59375C17.5575 5.84659 17.7749 6.18182 17.9368 6.59943C18.0987 7.01705 18.1797 7.53125 18.1797 8.14205V8.56818H13.1342V7.69886H17.157C17.157 7.32955 17.0831 7 16.9354 6.71023C16.7905 6.42045 16.5831 6.19176 16.3132 6.02415C16.0462 5.85653 15.7308 5.77273 15.3672 5.77273C14.9666 5.77273 14.62 5.87216 14.3274 6.07102C14.0376 6.26705 13.8146 6.52273 13.6584 6.83807C13.5021 7.15341 13.424 7.49148 13.424 7.85227V8.43182C13.424 8.92614 13.5092 9.34517 13.6797 9.68892C13.853 10.0298 14.093 10.2898 14.3999 10.4688C14.7067 10.6449 15.0632 10.733 15.4695 10.733C15.7337 10.733 15.9723 10.696 16.1854 10.6222C16.4013 10.5455 16.5874 10.4318 16.7436 10.2812C16.8999 10.1278 17.0206 9.9375 17.1058 9.71023L18.0774 9.98295C17.9751 10.3125 17.8033 10.6023 17.5618 10.8523C17.3203 11.0994 17.022 11.2926 16.6669 11.4318C16.3118 11.5682 15.9126 11.6364 15.4695 11.6364ZM22.5561 4.95455V5.80682H19.1641V4.95455H22.5561ZM20.1527 3.38636H21.1584V9.625C21.1584 9.90909 21.1996 10.1222 21.282 10.2642C21.3672 10.4034 21.4751 10.4972 21.6058 10.5455C21.7393 10.5909 21.88 10.6136 22.0277 10.6136C22.1385 10.6136 22.2294 10.608 22.3004 10.5966C22.3714 10.5824 22.4283 10.571 22.4709 10.5625L22.6754 11.4659C22.6072 11.4915 22.5121 11.517 22.3899 11.5426C22.2678 11.571 22.1129 11.5852 21.9254 11.5852C21.6413 11.5852 21.3629 11.5241 21.0902 11.402C20.8203 11.2798 20.5959 11.0938 20.4169 10.8438C20.2408 10.5938 20.1527 10.2784 20.1527 9.89773V3.38636ZM25.995 11.6534C25.5803 11.6534 25.2038 11.5753 24.8658 11.419C24.5277 11.2599 24.2592 11.0312 24.0604 10.733C23.8615 10.4318 23.7621 10.0682 23.7621 9.64205C23.7621 9.26705 23.8359 8.96307 23.9837 8.73011C24.1314 8.49432 24.3288 8.30966 24.576 8.17614C24.8232 8.04261 25.0959 7.94318 25.3942 7.87784C25.6953 7.80966 25.9979 7.75568 26.3018 7.71591C26.6996 7.66477 27.022 7.62642 27.2692 7.60085C27.5192 7.57244 27.701 7.52557 27.8146 7.46023C27.9311 7.39489 27.9893 7.28125 27.9893 7.11932V7.08523C27.9893 6.66477 27.8743 6.33807 27.6442 6.10511C27.4169 5.87216 27.0717 5.75568 26.6087 5.75568C26.1286 5.75568 25.7521 5.8608 25.4794 6.07102C25.2067 6.28125 25.0149 6.50568 24.9041 6.74432L23.9496 6.40341C24.12 6.00568 24.3473 5.69602 24.6314 5.47443C24.9183 5.25 25.2308 5.09375 25.5689 5.00568C25.9098 4.91477 26.245 4.86932 26.5746 4.86932C26.7848 4.86932 27.0263 4.89489 27.299 4.94602C27.5746 4.99432 27.8402 5.09517 28.0959 5.24858C28.3544 5.40199 28.5689 5.63352 28.7393 5.94318C28.9098 6.25284 28.995 6.66761 28.995 7.1875V11.5H27.9893V10.6136H27.9382C27.87 10.7557 27.7564 10.9077 27.5973 11.0696C27.4382 11.2315 27.2266 11.3693 26.9624 11.483C26.6982 11.5966 26.3757 11.6534 25.995 11.6534ZM26.1484 10.75C26.5462 10.75 26.8814 10.6719 27.1541 10.5156C27.4297 10.3594 27.6371 10.1577 27.7763 9.91051C27.9183 9.66335 27.9893 9.40341 27.9893 9.13068V8.21023C27.9467 8.26136 27.853 8.30824 27.7081 8.35085C27.5661 8.39062 27.4013 8.42614 27.2138 8.45739C27.0291 8.4858 26.8487 8.51136 26.6726 8.53409C26.4993 8.55398 26.3587 8.57102 26.2507 8.58523C25.9893 8.61932 25.745 8.67472 25.5178 8.75142C25.2933 8.82528 25.1115 8.9375 24.9723 9.08807C24.8359 9.2358 24.7678 9.4375 24.7678 9.69318C24.7678 10.0426 24.897 10.3068 25.1555 10.4858C25.4169 10.6619 25.7479 10.75 26.1484 10.75Z" fill="#A048F2"/>
</svg>
