<svg width="36" height="36" viewBox="0 0 36 36" fill="none" xmlns="http://www.w3.org/2000/svg">
<path opacity="0.4" d="M5.955 10.23L14.58 4.18503C16.935 2.53503 20.535 2.62503 22.8 4.38003L30.315 10.245C31.83 11.415 33 13.815 33 15.705V26.055C33 29.88 29.895 33 26.085 33H9.93C6.12 33 3.015 29.895 3.015 26.07V15.9C3 13.875 4.305 11.385 5.955 10.23Z" fill="white"/>
<path d="M15.8995 12.7651H20.0995C22.9795 12.7651 25.3345 15.1051 25.3345 18.0001V22.1851C25.3345 25.0651 22.9795 27.4201 20.0995 27.4201H15.9145C13.0345 27.4201 10.6795 25.0801 10.6795 22.1851V18.0001C10.6795 15.1201 13.0195 12.7651 15.8995 12.7651ZM12.7645 18.0001V19.0501H16.9495V14.8651H15.8995C14.1745 14.8651 12.7645 16.2751 12.7645 18.0001ZM20.0995 14.8651H19.0495V19.0501H23.2345V18.0001C23.2345 16.2751 21.8245 14.8651 20.0995 14.8651ZM23.2345 22.1851V21.1351H19.0495V25.3201H20.0995C21.8245 25.3201 23.2345 23.9101 23.2345 22.1851ZM15.8995 25.3201H16.9495V21.1351H12.7645V22.1851C12.7645 23.9101 14.1745 25.3201 15.8995 25.3201Z" fill="white"/>
</svg>
