<svg width="40" height="36" viewBox="0 0 40 36" fill="none" xmlns="http://www.w3.org/2000/svg">
<rect width="40" height="36" rx="18" fill="#EEEEEE"/>
<rect x="0.5" y="0.5" width="39" height="35" rx="17.5" stroke="#111111" stroke-opacity="0.01"/>
<path d="M15.24 8H13.34C11.15 8 10 9.15 10 11.33V13.23C10 15.41 11.15 16.56 13.33 16.56H15.23C17.41 16.56 18.56 15.41 18.56 13.23V11.33C18.57 9.15 17.42 8 15.24 8Z" fill="#292D32"/>
<path opacity="0.4" d="M26.6704 8H24.7704C22.5904 8 21.4404 9.15 21.4404 11.33V13.23C21.4404 15.41 22.5904 16.56 24.7704 16.56H26.6704C28.8504 16.56 30.0004 15.41 30.0004 13.23V11.33C30.0004 9.15 28.8504 8 26.6704 8Z" fill="#292D32"/>
<path d="M26.6704 19.4297H24.7704C22.5904 19.4297 21.4404 20.5797 21.4404 22.7597V24.6597C21.4404 26.8397 22.5904 27.9897 24.7704 27.9897H26.6704C28.8504 27.9897 30.0004 26.8397 30.0004 24.6597V22.7597C30.0004 20.5797 28.8504 19.4297 26.6704 19.4297Z" fill="#292D32"/>
<path opacity="0.4" d="M15.24 19.4301H13.34C11.15 19.4301 10 20.5801 10 22.7601V24.6601C10 26.8501 11.15 28.0001 13.33 28.0001H15.23C17.41 28.0001 18.56 26.8501 18.56 24.6701V22.7701C18.57 20.5801 17.42 19.4301 15.24 19.4301Z" fill="#292D32"/>
</svg>
