<svg width="34" height="14" viewBox="0 0 34 14" fill="none" xmlns="http://www.w3.org/2000/svg">
<rect width="34" height="14" rx="4" fill="#2B58E2" fill-opacity="0.1"/>
<path d="M11.9773 2.77273V11.5H10.9545L6.19886 4.64773H6.11364V11.5H5.05682V2.77273H6.07955L10.8523 9.64205H10.9375V2.77273H11.9773ZM16.6999 11.6364C16.0692 11.6364 15.5252 11.4972 15.0678 11.2188C14.6133 10.9375 14.2624 10.5455 14.0153 10.0426C13.771 9.53693 13.6488 8.94886 13.6488 8.27841C13.6488 7.60795 13.771 7.01705 14.0153 6.50568C14.2624 5.99148 14.6062 5.59091 15.0465 5.30398C15.4897 5.0142 16.0067 4.86932 16.5977 4.86932C16.9386 4.86932 17.2752 4.92614 17.6076 5.03977C17.94 5.15341 18.2425 5.33807 18.5153 5.59375C18.788 5.84659 19.0053 6.18182 19.1673 6.59943C19.3292 7.01705 19.4102 7.53125 19.4102 8.14205V8.56818H14.3647V7.69886H18.3874C18.3874 7.32955 18.3136 7 18.1658 6.71023C18.021 6.42045 17.8136 6.19176 17.5437 6.02415C17.2766 5.85653 16.9613 5.77273 16.5977 5.77273C16.1971 5.77273 15.8505 5.87216 15.5579 6.07102C15.2681 6.26705 15.0451 6.52273 14.8888 6.83807C14.7326 7.15341 14.6545 7.49148 14.6545 7.85227V8.43182C14.6545 8.92614 14.7397 9.34517 14.9102 9.68892C15.0835 10.0298 15.3235 10.2898 15.6303 10.4688C15.9371 10.6449 16.2937 10.733 16.6999 10.733C16.9641 10.733 17.2028 10.696 17.4158 10.6222C17.6317 10.5455 17.8178 10.4318 17.9741 10.2812C18.1303 10.1278 18.2511 9.9375 18.3363 9.71023L19.3079 9.98295C19.2056 10.3125 19.0337 10.6023 18.7923 10.8523C18.5508 11.0994 18.2525 11.2926 17.8974 11.4318C17.5423 11.5682 17.1431 11.6364 16.6999 11.6364ZM22.4229 11.5L20.4286 4.95455H21.4854L22.9002 9.96591H22.9684L24.3661 4.95455H25.44L26.8207 9.94886H26.8888L28.3036 4.95455H29.3604L27.3661 11.5H26.3775L24.9457 6.47159H24.8434L23.4116 11.5H22.4229Z" fill="#2B58E2"/>
</svg>
