<svg width="34" height="35" viewBox="0 0 34 35" fill="none" xmlns="http://www.w3.org/2000/svg">
<rect y="0.5" width="34" height="34" rx="10" fill="#2B58E2" fill-opacity="0.1"/>
<path d="M26.75 12.73C26.75 12.53 26.67 12.34 26.53 12.2L22.81 8.47995C22.52 8.18995 22.04 8.18995 21.75 8.47995C21.46 8.76995 21.46 9.24995 21.75 9.53995L24.2 11.99H8C7.59 11.99 7.25 12.33 7.25 12.74C7.25 13.15 7.59 13.48 8 13.48H24.19L21.75 15.92C21.46 16.21 21.46 16.69 21.75 16.98C21.9 17.13 22.09 17.2 22.28 17.2C22.47 17.2 22.66 17.13 22.81 16.98L26.52 13.27C26.59 13.2 26.65 13.11 26.69 13.01C26.69 13 26.69 12.99 26.7 12.98C26.73 12.9 26.75 12.82 26.75 12.73Z" fill="#2B58E2"/>
<path d="M26 22.52H9.81L12.25 20.08C12.54 19.79 12.54 19.31 12.25 19.02C11.96 18.73 11.48 18.73 11.19 19.02L7.48 22.73C7.41 22.8 7.35 22.89 7.31 22.99C7.31 23 7.31 23.01 7.3 23.02C7.27 23.1 7.25 23.19 7.25 23.28C7.25 23.48 7.33 23.67 7.47 23.81L11.19 27.53C11.34 27.68 11.53 27.75 11.72 27.75C11.91 27.75 12.1 27.68 12.25 27.53C12.54 27.24 12.54 26.76 12.25 26.47L9.8 24.02H26C26.41 24.02 26.75 23.68 26.75 23.27C26.75 22.86 26.41 22.52 26 22.52Z" fill="#2B58E2"/>
</svg>
