<svg width="40" height="36" viewBox="0 0 40 36" fill="none" xmlns="http://www.w3.org/2000/svg">
<rect width="40" height="36" rx="18" fill="#EEEEEE"/>
<rect x="0.5" y="0.5" width="39" height="35" rx="17.5" stroke="#111111" stroke-opacity="0.01"/>
<path opacity="0.4" d="M20 8C17.38 8 15.25 10.13 15.25 12.75C15.25 15.32 17.26 17.4 19.88 17.49C19.96 17.48 20.04 17.48 20.1 17.49C20.12 17.49 20.13 17.49 20.15 17.49C20.16 17.49 20.16 17.49 20.17 17.49C22.73 17.4 24.74 15.32 24.75 12.75C24.75 10.13 22.62 8 20 8Z" fill="#292D32"/>
<path d="M25.08 20.15C22.29 18.29 17.74 18.29 14.93 20.15C13.66 21 12.96 22.15 12.96 23.38C12.96 24.61 13.66 25.75 14.92 26.59C16.32 27.53 18.16 28 20 28C21.84 28 23.68 27.53 25.08 26.59C26.34 25.74 27.04 24.6 27.04 23.36C27.03 22.13 26.34 20.99 25.08 20.15Z" fill="#292D32"/>
</svg>
